<svg xmlns="http://www.w3.org/2000/svg" version="1.1" xmlns:xlink="http://www.w3.org/1999/xlink" xmlns:svgjs="http://svgjs.dev/svgjs" width="1000" height="623" viewBox="0 0 1000 623"><g transform="matrix(1,0,0,1,-0.6060606060606233,0.2522267206477409)"><svg viewBox="0 0 396 247" data-background-color="#fafafa" preserveAspectRatio="xMidYMid meet" height="623" width="1000" xmlns="http://www.w3.org/2000/svg" xmlns:xlink="http://www.w3.org/1999/xlink"><g id="tight-bounds" transform="matrix(1,0,0,1,0.2400000000000091,-0.09999999999999432)"><svg viewBox="0 0 395.52 247.2" height="247.2" width="395.52"><g><svg></svg></g><g><svg viewBox="0 0 395.52 247.2" height="247.2" width="395.52"><g transform="matrix(1,0,0,1,75.54432,78.07862724155845)"><svg viewBox="0 0 244.43135999999998 91.0427455168831" height="91.0427455168831" width="244.43135999999998"><g><svg viewBox="0 0 244.43135999999998 91.0427455168831" height="91.0427455168831" width="244.43135999999998"><g><svg viewBox="0 0 244.43135999999998 91.0427455168831" height="91.0427455168831" width="244.43135999999998"><g><svg viewBox="0 0 244.43135999999998 91.0427455168831" height="91.0427455168831" width="244.43135999999998"><g><svg viewBox="0 0 244.43135999999998 91.0427455168831" height="91.0427455168831" width="244.43135999999998"><g><svg viewBox="0 0 244.43135999999998 91.0427455168831" height="91.0427455168831" width="244.43135999999998"><g transform="matrix(1,0,0,1,0,0)"><svg width="244.43135999999998" viewBox="3.25 -35.0099983215332 93.98999786376953 35.0099983215332" height="91.0427455168831" data-palette-color="#130912"><path d="M31.3-17.5L31.3-17.5Q31.3-15.09 30.68-12.85 30.05-10.62 28.91-8.68 27.76-6.74 26.17-5.14 24.58-3.54 22.63-2.39 20.68-1.25 18.44-0.62 16.21 0 13.79 0L13.79 0 3.25 0 3.25-35.01 13.79-35.01Q16.21-35.01 18.44-34.39 20.68-33.76 22.63-32.62 24.58-31.47 26.17-29.87 27.76-28.27 28.91-26.33 30.05-24.39 30.68-22.16 31.3-19.92 31.3-17.5ZM24.29-17.5L24.29-17.5Q24.29-19.68 23.47-21.58 22.66-23.49 21.23-24.91 19.8-26.34 17.88-27.17 15.97-28 13.79-28L13.79-28 10.3-28 10.3-7.01 13.79-7.01Q15.97-7.01 17.88-7.82 19.8-8.64 21.23-10.07 22.66-11.5 23.47-13.42 24.29-15.33 24.29-17.5ZM42.53-13.99L56.54-13.99 56.54-21Q56.54-22.44 55.99-23.72 55.44-25 54.49-25.95 53.54-26.9 52.26-27.45 50.97-28 49.53-28L49.53-28Q48.09-28 46.81-27.45 45.53-26.9 44.58-25.95 43.63-25 43.08-23.72 42.53-22.44 42.53-21L42.53-21 42.53-13.99ZM63.55-21L63.55 0 56.54 0 56.54-7.01 42.53-7.01 42.53 0 35.54 0 35.54-21Q35.54-23.9 36.64-26.45 37.74-29 39.63-30.91 41.53-32.81 44.08-33.91 46.63-35.01 49.53-35.01L49.53-35.01Q52.44-35.01 54.99-33.91 57.54-32.81 59.45-30.91 61.35-29 62.45-26.45 63.55-23.9 63.55-21L63.55-21ZM76.22-13.99L90.23-13.99 90.23-21Q90.23-22.44 89.68-23.72 89.13-25 88.18-25.95 87.23-26.9 85.94-27.45 84.66-28 83.22-28L83.22-28Q81.78-28 80.5-27.45 79.22-26.9 78.27-25.95 77.31-25 76.77-23.72 76.22-22.44 76.22-21L76.22-21 76.22-13.99ZM97.24-21L97.24 0 90.23 0 90.23-7.01 76.22-7.01 76.22 0 69.23 0 69.23-21Q69.23-23.9 70.33-26.45 71.43-29 73.32-30.91 75.21-32.81 77.77-33.91 80.32-35.01 83.22-35.01L83.22-35.01Q86.13-35.01 88.68-33.91 91.23-32.81 93.13-30.91 95.04-29 96.14-26.45 97.24-23.9 97.24-21L97.24-21Z" opacity="1" transform="matrix(1,0,0,1,0,0)" fill="#000000" class="undefined-text-0" data-fill-palette-color="primary" id="text-0"></path></svg></g></svg></g></svg></g></svg></g></svg></g></svg></g></svg></g><path d="M220.359 72.079L220.359 18.955 11.069 18.955 11.069 228.245 220.359 228.245 220.359 175.121 212.149 175.121 212.149 220.035 19.279 220.035 19.279 27.165 212.149 27.165 212.149 72.079Z" fill="#000000" stroke="transparent" data-fill-palette-color="primary"></path></svg></g><defs></defs></svg><rect width="395.52" height="247.2" fill="none" stroke="none" visibility="hidden"></rect></g></svg></g></svg>